# xmcd CD database file
#
# Track frame offsets:
#	150
#	19462
#	37383
#	54888
#	68579
#	87895
#	105869
#	123722
#	138505
#	155131
#	172527
#	184821
#
# Disc length: 2711 seconds
#
# Revision: 0
# Processed by: cddbd v1.5.2PL0 Copyright (c) Steve Scherf et al.
# Submitted via: CDex 1.96
#
DISCID=9d0a950c
DTITLE=Seaman Dan - An Old Man Of the Sea
DYEAR=2016
DGENRE=Blues
TTITLE0=Walking Frame Blues
TTITLE1=Pressure Point
TTITLE2=Beyond The Reef
TTITLE3=Red Sails In The Sunset
TTITLE4=Hook, Line and Plastic
TTITLE5=Sayonara Nakamura
TTITLE6=The Ballarina Sails For T.I.
TTITLE7=Love Letters In The Sand
TTITLE8=Summer Wind
TTITLE9=A Red Rose and A Valentine
TTITLE10=House Party hula
TTITLE11=Old Man Blues
EXTD=YEAR: 2016
EXTT0=
EXTT1=
EXTT2=
EXTT3=
EXTT4=
EXTT5=
EXTT6=
EXTT7=
EXTT8=
EXTT9=
EXTT10=
EXTT11=
PLAYORDER=
